<svg font-family="system-ui, -apple-system, Segoe UI, sans-serif" height="250" viewBox="0 0 760 250" width="760" xmlns="http://www.w3.org/2000/svg"><rect fill="#0b0e13" height="250" rx="8" width="760" x="0" y="0"></rect><text fill="#e8e6e3" font-size="18" font-weight="700" x="24" y="32">Emmy conveyor: f → f′ → LaTeX (both)</text><text fill="#8a8f98" font-size="12" x="24" y="52">mean per call ± σ · JDK 26.0.2 · Clojure 1.12.3 · 22 cores</text><g><line stroke="#232833" x1="210.0" x2="210.0" y1="70" y2="220"></line><text fill="#8a8f98" font-size="11" text-anchor="middle" x="210.0" y="238">0.0 µs</text></g><g><line stroke="#232833" x1="335.781484782604" x2="335.781484782604" y1="70" y2="220"></line><text fill="#8a8f98" font-size="11" text-anchor="middle" x="335.781484782604" y="238">50.0 µs</text></g><g><line stroke="#232833" x1="461.5629695652081" x2="461.5629695652081" y1="70" y2="220"></line><text fill="#8a8f98" font-size="11" text-anchor="middle" x="461.5629695652081" y="238">100.0 µs</text></g><g><line stroke="#232833" x1="587.3444543478122" x2="587.3444543478122" y1="70" y2="220"></line><text fill="#8a8f98" font-size="11" text-anchor="middle" x="587.3444543478122" y="238">150.0 µs</text></g><g><text fill="#e8e6e3" font-size="12" text-anchor="end" x="198" y="92">sin x</text><rect fill="#4fd1c5" height="22" rx="3" width="60.82718305256185" x="210" y="77"></rect><line stroke="#e8e6e3" stroke-width="1.5" x1="256.6033425215075" x2="285.05102358361626" y1="88" y2="88"></line><text fill="#e8e6e3" font-size="11" x="293.05102358361626" y="92">24.2 µs</text></g><g><text fill="#e8e6e3" font-size="12" text-anchor="end" x="198" y="128">exp(sin x)</text><rect fill="#f0ac5f" height="22" rx="3" width="112.15700986518732" x="210" y="113"></rect><line stroke="#e8e6e3" stroke-width="1.5" x1="286.74472052612657" x2="357.56929920424807" y1="124" y2="124"></line><text fill="#e8e6e3" font-size="11" x="365.56929920424807" y="128">44.6 µs</text></g><g><text fill="#e8e6e3" font-size="12" text-anchor="end" x="198" y="164">x⁵ + 3x³ − 2x</text><rect fill="#7aa2f7" height="22" rx="3" width="340.27736168069646" x="210" y="149"></rect><line stroke="#e8e6e3" stroke-width="1.5" x1="450.5547233613928" x2="650.0" y1="160" y2="160"></line><text fill="#e8e6e3" font-size="11" x="658.0" y="164">135.3 µs</text></g><g><text fill="#e8e6e3" font-size="12" text-anchor="end" x="198" y="200">sin(x² cos x)</text><rect fill="#f7768e" height="22" rx="3" width="291.59966327006276" x="210" y="185"></rect><line stroke="#e8e6e3" stroke-width="1.5" x1="421.4191001785009" x2="581.7802263616246" y1="196" y2="196"></line><text fill="#e8e6e3" font-size="11" x="589.7802263616246" y="200">115.9 µs</text></g></svg>